<svg width="278" height="24" viewBox="0 0 278 24" fill="none" xmlns="http://www.w3.org/2000/svg">
<path d="M1.044 2.408C0.9 2.228 0.936 1.256 1.044 1.184C1.908 1.184 3.456 1.292 6.192 1.292C9 1.292 11.556 1.184 12.528 1.184C15.912 1.184 19.584 2.012 19.584 6.116C19.584 8.06 18.18 9.896 15.588 10.616C15.516 10.652 15.516 10.796 15.588 10.832C18.828 11.48 21.132 13.028 21.132 16.196C21.132 19.004 19.692 20.948 16.812 22.244C15.192 22.964 12.78 23.288 10.656 23.288C9.072 23.288 3.096 23.108 0.648 23.108C0.54 22.892 0.504 21.992 0.684 21.884C1.764 21.74 2.412 21.632 2.988 21.416C3.528 21.236 3.78 20.804 3.888 19.796C3.96 18.86 3.96 16.088 3.96 12.056C3.96 8.384 3.96 6.26 3.888 4.316C3.816 3.344 3.564 2.984 2.916 2.768C2.376 2.552 1.62 2.444 1.044 2.408ZM10.152 2.696C9.9 2.696 9.576 2.768 9.36 2.84C9.252 2.876 9.144 3.128 9.108 3.308C9.036 4.352 9.036 7.916 9.036 10.292C9.036 10.4 9.144 10.472 9.216 10.472C9.54 10.508 10.116 10.508 10.908 10.508C11.988 10.508 12.96 10.4 13.32 10.184C14.256 9.608 14.688 8.636 14.688 7.232C14.688 4.604 13.32 2.696 10.152 2.696ZM11.952 21.884C14.148 21.884 15.624 20.156 15.624 16.988C15.624 13.928 13.752 12.02 10.332 12.02C9.936 12.02 9.504 12.02 9.216 12.056C9.144 12.056 9.036 12.128 9.036 12.272C9.036 14.864 9 18.14 9.108 19.796C9.108 20.192 9.396 20.696 9.612 20.948C10.26 21.668 11.556 21.884 11.952 21.884ZM23.3674 2.408C23.2594 2.228 23.2594 1.328 23.4034 1.184C24.6994 1.184 26.2834 1.292 28.7674 1.292C32.2594 1.292 33.4834 1.184 34.2394 1.184C34.3474 1.328 34.3834 2.228 34.2394 2.408C33.5194 2.516 32.8354 2.624 32.3674 2.768C31.5754 3.056 31.5394 3.56 31.5034 4.604C31.4314 5.72 31.4674 8.276 31.4674 11.372C31.4674 15.728 31.4314 18.356 31.5034 19.76C31.5394 20.408 31.5754 21.236 32.5834 21.488C33.0154 21.632 33.9154 21.74 34.6354 21.884C34.7434 22.064 34.5994 23 34.4554 23.108C32.9794 23.072 31.6114 23 29.0554 23C25.8154 23 24.7354 23.108 23.3674 23.108C23.1874 22.964 23.1874 22.028 23.3674 21.884C24.1234 21.776 24.6274 21.668 25.0234 21.596C25.9594 21.38 26.1754 21.092 26.2834 19.652C26.3554 18.392 26.3554 14.252 26.3554 11.336C26.3554 7.52 26.3554 5.792 26.2474 4.244C26.2114 3.488 25.9594 2.984 25.3474 2.768C24.6634 2.588 24.1954 2.516 23.3674 2.408ZM36.5175 2.408C36.3735 2.228 36.4455 1.292 36.5895 1.184C37.9935 1.184 40.2615 1.292 42.0255 1.292H49.2615C50.6655 1.292 52.6815 1.256 53.9415 1.076C53.9775 1.076 54.0495 1.148 54.0495 1.22C53.7975 2.336 53.6535 4.64 53.5455 6.656C53.3295 6.8 52.3575 6.872 52.1775 6.764C51.9615 5.432 51.7815 4.676 51.4935 4.1C51.1335 3.38 50.5215 3.2 50.0175 3.164C49.0815 3.056 45.5895 3.056 45.0135 3.128C44.8335 3.164 44.6535 3.596 44.6535 3.776C44.6175 6.08 44.6535 8.312 44.6535 10.76C44.6535 10.904 44.7975 11.048 44.9055 11.048C45.8415 11.048 48.3255 11.084 49.4775 11.012C50.2335 10.976 50.5575 10.652 50.7735 9.752C50.8815 9.392 50.9535 8.924 51.0615 8.456C51.2415 8.348 52.3215 8.384 52.5015 8.528C52.4655 9.392 52.3215 10.868 52.3215 12.02C52.3215 12.992 52.3575 14.648 52.3935 15.656C52.2135 15.764 51.1695 15.8 50.9895 15.692L50.6295 14.216C50.4135 13.676 50.1255 13.28 49.4055 13.172C48.7575 13.1 45.9855 13.1 44.9055 13.1C44.7975 13.1 44.6535 13.352 44.6535 13.424V19.76C44.6535 20.336 44.9775 20.84 45.4095 20.948C46.0935 21.092 47.8575 21.2 49.8735 21.2C51.4935 21.2 51.9975 21.056 52.7895 20.12C53.4735 19.328 54.1575 18.068 54.6975 16.808C54.9495 16.772 55.8855 17.096 56.0295 17.276C55.8495 18.104 55.0215 21.344 54.3735 22.568C54.2295 22.892 54.0495 23.144 52.5015 23.144C49.4775 23.144 46.0215 23 42.2055 23C40.2975 23 37.6695 23.108 35.7255 23.108C35.6535 22.82 35.6535 22.064 35.7255 21.884C36.9855 21.704 37.8855 21.56 38.3895 21.416C39.0375 21.236 39.3975 20.84 39.3975 19.688C39.5055 17.636 39.5055 15.152 39.5055 11.012C39.5055 8.348 39.5055 5.54 39.3975 4.244C39.3255 3.236 39.0735 2.948 38.3895 2.732C37.8495 2.552 37.2015 2.48 36.5175 2.408ZM57.5753 2.408C57.4313 2.192 57.5033 1.256 57.6833 1.184C58.5473 1.184 61.3553 1.292 62.7233 1.292C65.4593 1.292 67.4393 1.184 69.5633 1.184C73.9913 1.184 76.4033 3.452 76.4033 6.692C76.4033 9.5 74.5673 11.192 72.1913 12.128C72.1553 12.164 72.1193 12.344 72.1553 12.416C72.8393 13.748 76.1153 18.608 77.8793 20.3C79.1393 21.524 79.3553 21.632 81.1913 21.848C81.2633 21.956 81.0833 23.036 80.9393 23.144C78.8153 23.324 75.1433 23.144 73.6673 22.496C72.8033 22.064 72.0833 21.308 71.8673 20.984C70.4273 19.22 68.7353 16.16 67.5833 14.252C67.3313 13.856 67.0433 13.64 66.5393 13.604H65.6753C65.6033 13.604 65.5312 13.748 65.5312 13.82C65.5312 16.052 65.5673 18.284 65.6033 19.832C65.6393 20.876 65.8553 21.308 66.6113 21.524C67.2593 21.704 67.5833 21.74 68.5193 21.884C68.6993 21.92 68.6633 23.036 68.4473 23.108C67.6553 23.108 65.9273 23 63.0833 23C60.0953 23 58.4753 23.108 57.7192 23.108C57.5753 22.964 57.5033 22.028 57.6833 21.884C58.3313 21.812 58.8713 21.704 59.3393 21.596C60.0953 21.416 60.3473 20.948 60.3833 19.832C60.4553 18.716 60.4913 13.856 60.4913 11.624C60.4913 8.132 60.4913 5.936 60.4193 4.352C60.3833 3.38 60.0593 2.876 59.4113 2.732C58.9793 2.624 58.2593 2.48 57.5753 2.408ZM66.8273 2.732C66.5753 2.732 66.1073 2.768 65.8553 2.876C65.7113 2.984 65.6033 3.272 65.6033 3.416C65.5312 4.208 65.5312 6.872 65.5312 11.624C65.5312 11.768 65.6393 11.912 65.7473 11.912C67.2953 11.984 68.9873 11.84 69.6353 11.48C70.5713 11.012 71.2553 10.076 71.2553 7.808C71.2553 4.82 69.5993 2.732 66.8273 2.732ZM86.9659 2.408C86.8219 2.192 86.8939 1.256 87.0739 1.184C87.9379 1.184 90.7459 1.292 92.1139 1.292C94.8499 1.292 96.8299 1.184 98.9539 1.184C103.382 1.184 105.794 3.452 105.794 6.692C105.794 9.5 103.958 11.192 101.582 12.128C101.546 12.164 101.51 12.344 101.546 12.416C102.23 13.748 105.506 18.608 107.27 20.3C108.53 21.524 108.746 21.632 110.582 21.848C110.654 21.956 110.474 23.036 110.33 23.144C108.206 23.324 104.534 23.144 103.058 22.496C102.194 22.064 101.474 21.308 101.258 20.984C99.8179 19.22 98.1259 16.16 96.9739 14.252C96.7219 13.856 96.4339 13.64 95.9299 13.604H95.0659C94.9939 13.604 94.9219 13.748 94.9219 13.82C94.9219 16.052 94.9579 18.284 94.9939 19.832C95.0299 20.876 95.2459 21.308 96.0019 21.524C96.6499 21.704 96.9739 21.74 97.9099 21.884C98.0899 21.92 98.0539 23.036 97.8379 23.108C97.0459 23.108 95.3179 23 92.4739 23C89.4859 23 87.8659 23.108 87.1099 23.108C86.9659 22.964 86.8939 22.028 87.0739 21.884C87.7219 21.812 88.2619 21.704 88.7299 21.596C89.4859 21.416 89.7379 20.948 89.7739 19.832C89.8459 18.716 89.8819 13.856 89.8819 11.624C89.8819 8.132 89.8819 5.936 89.8099 4.352C89.7739 3.38 89.4499 2.876 88.8019 2.732C88.3699 2.624 87.6499 2.48 86.9659 2.408ZM96.2179 2.732C95.9659 2.732 95.4979 2.768 95.2459 2.876C95.1019 2.984 94.9939 3.272 94.9939 3.416C94.9219 4.208 94.9219 6.872 94.9219 11.624C94.9219 11.768 95.0299 11.912 95.1379 11.912C96.6859 11.984 98.3779 11.84 99.0259 11.48C99.9619 11.012 100.646 10.076 100.646 7.808C100.646 4.82 98.9899 2.732 96.2179 2.732ZM110.592 2.408C110.448 2.228 110.52 1.292 110.664 1.184C112.068 1.184 114.336 1.292 116.1 1.292H123.336C124.74 1.292 126.756 1.256 128.016 1.076C128.052 1.076 128.124 1.148 128.124 1.22C127.872 2.336 127.728 4.64 127.62 6.656C127.404 6.8 126.432 6.872 126.252 6.764C126.036 5.432 125.856 4.676 125.568 4.1C125.208 3.38 124.596 3.2 124.092 3.164C123.156 3.056 119.664 3.056 119.088 3.128C118.908 3.164 118.728 3.596 118.728 3.776C118.692 6.08 118.728 8.312 118.728 10.76C118.728 10.904 118.872 11.048 118.98 11.048C119.916 11.048 122.4 11.084 123.552 11.012C124.308 10.976 124.632 10.652 124.848 9.752C124.956 9.392 125.028 8.924 125.136 8.456C125.316 8.348 126.396 8.384 126.576 8.528C126.54 9.392 126.396 10.868 126.396 12.02C126.396 12.992 126.432 14.648 126.468 15.656C126.288 15.764 125.244 15.8 125.064 15.692L124.704 14.216C124.488 13.676 124.2 13.28 123.48 13.172C122.832 13.1 120.06 13.1 118.98 13.1C118.872 13.1 118.728 13.352 118.728 13.424V19.76C118.728 20.336 119.052 20.84 119.484 20.948C120.168 21.092 121.932 21.2 123.948 21.2C125.568 21.2 126.072 21.056 126.864 20.12C127.548 19.328 128.232 18.068 128.772 16.808C129.024 16.772 129.96 17.096 130.104 17.276C129.924 18.104 129.096 21.344 128.448 22.568C128.304 22.892 128.124 23.144 126.576 23.144C123.552 23.144 120.096 23 116.28 23C114.372 23 111.744 23.108 109.8 23.108C109.728 22.82 109.728 22.064 109.8 21.884C111.06 21.704 111.96 21.56 112.464 21.416C113.112 21.236 113.472 20.84 113.472 19.688C113.58 17.636 113.58 15.152 113.58 11.012C113.58 8.348 113.58 5.54 113.472 4.244C113.4 3.236 113.148 2.948 112.464 2.732C111.924 2.552 111.276 2.48 110.592 2.408ZM153.618 21.416C153.618 21.596 153.51 22.136 153.402 22.28C151.998 22.712 148.29 23.648 145.014 23.648C136.914 23.648 132.09 19.94 132.09 12.02C132.09 7.304 134.502 3.632 138.57 1.94C140.478 1.112 142.566 0.643998 145.842 0.643998C149.118 0.643998 151.638 1.328 153.294 1.436C152.97 2.876 152.646 5.864 152.682 7.772C152.502 7.988 151.422 8.06 151.242 7.916C150.954 5.54 150.522 4.28 149.622 3.56C148.362 2.516 146.634 2.12 144.762 2.12C141.306 2.12 137.994 4.208 137.994 11.444C137.994 17.708 141.018 22.136 145.662 22.136C146.058 22.136 146.778 22.028 147.102 21.74C147.39 21.56 147.57 21.02 147.606 20.66C147.714 19.724 147.75 18.068 147.678 16.988C147.606 15.8 147.462 15.188 146.418 14.9C145.77 14.72 145.086 14.684 144.114 14.54C143.97 14.288 144.006 13.388 144.114 13.244C145.158 13.244 147.678 13.352 150.234 13.352C152.79 13.352 154.014 13.28 154.77 13.244C154.878 13.388 154.878 14.36 154.77 14.54C154.41 14.612 154.014 14.684 153.69 14.792C153.006 15.008 152.79 15.224 152.79 16.844C152.754 17.852 152.754 20.084 152.826 20.552C152.898 20.876 153.042 21.056 153.618 21.416ZM156.998 2.408C156.854 2.228 156.926 1.292 157.07 1.184C158.474 1.184 160.742 1.292 162.506 1.292H169.742C171.146 1.292 173.162 1.256 174.422 1.076C174.458 1.076 174.53 1.148 174.53 1.22C174.278 2.336 174.134 4.64 174.026 6.656C173.81 6.8 172.838 6.872 172.658 6.764C172.442 5.432 172.262 4.676 171.974 4.1C171.614 3.38 171.002 3.2 170.498 3.164C169.562 3.056 166.07 3.056 165.494 3.128C165.314 3.164 165.134 3.596 165.134 3.776C165.098 6.08 165.134 8.312 165.134 10.76C165.134 10.904 165.278 11.048 165.386 11.048C166.322 11.048 168.806 11.084 169.958 11.012C170.714 10.976 171.038 10.652 171.254 9.752C171.362 9.392 171.434 8.924 171.542 8.456C171.722 8.348 172.802 8.384 172.982 8.528C172.946 9.392 172.802 10.868 172.802 12.02C172.802 12.992 172.838 14.648 172.874 15.656C172.694 15.764 171.65 15.8 171.47 15.692L171.11 14.216C170.894 13.676 170.606 13.28 169.886 13.172C169.238 13.1 166.466 13.1 165.386 13.1C165.278 13.1 165.134 13.352 165.134 13.424V19.76C165.134 20.336 165.458 20.84 165.89 20.948C166.574 21.092 168.338 21.2 170.354 21.2C171.974 21.2 172.478 21.056 173.27 20.12C173.954 19.328 174.638 18.068 175.178 16.808C175.43 16.772 176.366 17.096 176.51 17.276C176.33 18.104 175.502 21.344 174.854 22.568C174.71 22.892 174.53 23.144 172.982 23.144C169.958 23.144 166.502 23 162.686 23C160.778 23 158.15 23.108 156.206 23.108C156.134 22.82 156.134 22.064 156.206 21.884C157.466 21.704 158.366 21.56 158.87 21.416C159.518 21.236 159.878 20.84 159.878 19.688C159.986 17.636 159.986 15.152 159.986 11.012C159.986 8.348 159.986 5.54 159.878 4.244C159.806 3.236 159.554 2.948 158.87 2.732C158.33 2.552 157.682 2.48 156.998 2.408ZM177.624 2.444C177.516 2.3 177.552 1.292 177.624 1.184C178.92 1.148 180.648 1.292 182.916 1.292C184.032 1.292 185.112 1.256 185.616 1.22C185.868 1.76 186.228 2.3 186.948 3.2C189.756 6.764 194.976 13.496 197.352 16.304C197.424 16.304 197.424 16.268 197.496 16.268C197.496 11.804 197.532 7.16 197.316 4.82C197.208 3.596 196.848 3.056 195.696 2.768C194.976 2.588 194.436 2.516 193.536 2.408C193.392 2.264 193.464 1.256 193.536 1.184C194.472 1.184 196.092 1.292 198.396 1.292C200.412 1.292 201.924 1.184 202.608 1.184C202.752 1.292 202.752 2.3 202.608 2.408C202.14 2.48 201.672 2.552 201.204 2.696C200.16 3.02 199.764 3.416 199.656 4.964C199.404 8.096 199.332 13.64 199.332 18.248C199.332 19.832 199.368 21.92 199.404 23.216C198.792 23.144 196.488 23.18 195.804 23.252C193.644 20.336 185.616 9.716 183.204 6.62C183.096 6.512 183.024 6.62 183.024 6.656C182.952 10.58 183.024 17.672 183.096 19.184C183.204 20.732 183.744 21.272 184.752 21.488C185.328 21.632 185.94 21.704 186.84 21.884C186.984 21.992 186.984 22.892 186.804 23.108C185.508 23.108 183.888 23 182.232 23C180.36 23 178.668 23.108 177.516 23.108C177.372 22.928 177.408 21.992 177.516 21.884C178.344 21.74 178.956 21.632 179.604 21.416C180.396 21.164 180.72 20.516 180.828 19.364C181.044 17.492 181.188 10.58 181.188 5.324C181.188 4.388 180.756 3.308 179.856 2.984C179.208 2.732 178.56 2.516 177.624 2.444ZM219.981 14.468C219.657 14.288 219.369 13.604 219.333 13.388C219.333 13.244 219.405 13.064 219.477 12.992C219.621 13.028 219.981 13.064 220.485 13.064C221.205 13.064 221.781 12.92 222.285 12.596C223.401 11.876 224.013 10.616 224.013 8.312C223.977 5 222.321 2.732 219.477 2.732C219.297 2.732 218.793 2.768 218.505 2.912C218.469 2.948 218.289 3.2 218.289 3.416C218.217 4.496 218.217 6.656 218.217 11.372C218.217 13.244 218.181 17.708 218.289 19.688C218.325 20.552 218.469 21.272 219.369 21.488C220.017 21.704 220.773 21.776 221.745 21.884C221.853 22.064 221.817 22.892 221.601 23.108C220.125 23.108 217.785 23 215.769 23C213.861 23 211.953 23.108 210.081 23.108C209.973 22.856 209.973 22.028 210.081 21.884C210.801 21.776 211.377 21.704 211.989 21.56C212.853 21.344 212.961 20.624 212.997 19.652C213.033 18.248 213.069 15.872 213.069 11.516C213.069 7.736 213.069 5.792 212.997 4.676C212.961 3.488 212.781 2.912 211.845 2.696C211.341 2.588 210.765 2.48 210.081 2.408C209.973 2.156 210.009 1.328 210.117 1.184C211.161 1.184 213.141 1.292 215.049 1.292C217.749 1.256 219.405 1.22 222.141 1.22C223.221 1.22 225.345 1.328 226.857 2.444C228.189 3.38 229.305 5.036 229.305 7.52C229.305 10.4 227.865 12.344 226.173 13.352C224.805 14.18 223.185 14.612 221.601 14.612C220.881 14.612 220.377 14.54 219.981 14.468ZM231.234 2.408C231.162 2.192 231.162 1.364 231.27 1.184C232.602 1.184 234.618 1.292 236.814 1.292C239.19 1.292 241.026 1.184 242.502 1.184C242.646 1.364 242.646 2.192 242.502 2.408C241.854 2.48 241.278 2.624 240.846 2.696C239.946 2.912 239.658 3.56 239.622 4.676C239.514 7.232 239.586 10.472 239.586 12.38C239.586 13.748 239.658 15.656 239.874 16.952C240.306 19.436 242.034 21.092 245.562 21.092C247.974 21.092 250.638 20.264 250.998 15.404C251.214 12.74 251.214 7.016 251.07 5.072C250.998 3.704 250.71 3.02 249.522 2.768C248.982 2.624 248.19 2.48 247.398 2.408C247.29 2.192 247.29 1.436 247.434 1.184C248.766 1.184 250.242 1.292 251.898 1.292C254.634 1.292 255.426 1.184 256.254 1.184C256.434 1.364 256.434 2.228 256.254 2.408C255.714 2.516 255.21 2.588 254.742 2.732C253.842 2.948 253.554 3.488 253.446 5.252C253.374 6.44 253.23 11.48 253.158 13.856C252.87 21.236 249.198 23.648 243.618 23.648C237.138 23.648 234.978 20.48 234.582 16.988C234.258 14.36 234.33 8.852 234.294 4.568C234.258 3.632 233.97 3.02 233.106 2.768C232.674 2.624 231.918 2.48 231.234 2.408ZM257.263 2.408C257.119 2.228 257.155 1.256 257.263 1.184C258.127 1.184 259.675 1.292 262.411 1.292C265.219 1.292 267.775 1.184 268.747 1.184C272.131 1.184 275.803 2.012 275.803 6.116C275.803 8.06 274.399 9.896 271.807 10.616C271.735 10.652 271.735 10.796 271.807 10.832C275.047 11.48 277.351 13.028 277.351 16.196C277.351 19.004 275.911 20.948 273.031 22.244C271.411 22.964 268.999 23.288 266.875 23.288C265.291 23.288 259.315 23.108 256.867 23.108C256.759 22.892 256.723 21.992 256.903 21.884C257.983 21.74 258.631 21.632 259.207 21.416C259.747 21.236 259.999 20.804 260.107 19.796C260.179 18.86 260.179 16.088 260.179 12.056C260.179 8.384 260.179 6.26 260.107 4.316C260.035 3.344 259.783 2.984 259.135 2.768C258.595 2.552 257.839 2.444 257.263 2.408ZM266.371 2.696C266.119 2.696 265.795 2.768 265.579 2.84C265.471 2.876 265.363 3.128 265.327 3.308C265.255 4.352 265.255 7.916 265.255 10.292C265.255 10.4 265.363 10.472 265.435 10.472C265.759 10.508 266.335 10.508 267.127 10.508C268.207 10.508 269.179 10.4 269.539 10.184C270.475 9.608 270.907 8.636 270.907 7.232C270.907 4.604 269.539 2.696 266.371 2.696ZM268.171 21.884C270.367 21.884 271.843 20.156 271.843 16.988C271.843 13.928 269.971 12.02 266.551 12.02C266.155 12.02 265.723 12.02 265.435 12.056C265.363 12.056 265.255 12.128 265.255 12.272C265.255 14.864 265.219 18.14 265.327 19.796C265.327 20.192 265.615 20.696 265.831 20.948C266.479 21.668 267.775 21.884 268.171 21.884Z" fill="white"/>
</svg>
