<svg width="221" height="221" viewBox="0 0 221 221" fill="none" xmlns="http://www.w3.org/2000/svg">
<path d="M107.504 179.874C108.486 179.835 109.464 179.796 110.446 179.761C110.529 181.205 110.559 182.649 110.608 184.098C112.165 184.049 113.727 184.01 115.288 184.01C115.215 182.571 115.175 181.132 115.107 179.693C116.128 179.658 117.15 179.604 118.176 179.55C118.24 183.818 118.304 188.086 118.471 192.349C117.484 192.383 116.496 192.427 115.509 192.476C115.47 190.571 115.416 188.665 115.387 186.765C113.815 186.774 112.243 186.804 110.672 186.843C110.672 188.739 110.746 190.635 110.839 192.525C109.822 192.555 108.811 192.584 107.799 192.609C107.73 188.361 107.627 184.118 107.504 179.874ZM95.8698 179.295C98.6004 177.802 102.063 178.661 104.224 180.758C103.968 181.844 103.718 182.929 103.502 184.024C102.244 182.246 100.03 180.852 97.7999 181.593C94.8532 182.482 94.4014 187.246 97.1712 188.641C99.0866 189.657 101.257 188.798 102.883 187.639C102.691 188.857 102.51 190.075 102.294 191.293C98.9491 192.874 94.4014 191.514 92.874 188.046C91.4007 184.928 92.7758 180.837 95.8698 179.295ZM121.727 179.01C124.197 178.504 126.653 177.934 129.138 177.512C129.339 178.376 129.54 179.236 129.737 180.11C128.219 180.4 126.707 180.714 125.189 180.994C125.297 181.618 125.41 182.242 125.528 182.87C127.036 182.531 128.543 182.207 130.056 181.917C130.257 182.811 130.473 183.71 130.685 184.609C129.162 184.913 127.63 185.208 126.112 185.542C126.304 186.411 126.491 187.285 126.677 188.159C128.185 187.855 129.698 187.55 131.205 187.221C131.377 188.135 131.564 189.053 131.745 189.972C129.265 190.433 126.8 190.969 124.335 191.509C123.441 187.349 122.591 183.18 121.727 179.01ZM135.969 177.831C136.273 178.666 136.588 179.496 136.922 180.321C137.364 179.791 138.552 179.359 138.154 178.543C138.017 177.453 136.711 177.944 135.969 177.831ZM132.271 176.525C134.176 175.941 135.984 174.767 138.032 174.865C140.964 175.312 142.226 179.442 140.011 181.441C141.926 182.625 143.802 183.872 145.718 185.065C144.74 185.434 143.783 185.861 142.781 186.165C140.954 185.591 139.5 184.201 137.845 183.268C138.395 184.643 138.94 186.023 139.471 187.408C138.592 187.762 137.708 188.115 136.828 188.469C135.286 184.496 133.744 180.523 132.271 176.525ZM84.3139 175.219C86.9267 174.462 90.1336 176.304 90.1287 179.216C89.2889 179.349 88.4491 179.486 87.6093 179.634C87.3245 178.553 86.0132 177.021 84.977 178.273C84.9475 179.923 86.7892 180.778 87.5356 182.114C89.4608 184.383 87.3441 188.243 84.4662 188.154C81.7062 188.361 78.9756 185.999 79.4863 183.106C80.3851 183.008 81.2838 182.914 82.1825 182.806C81.9861 184.334 83.317 185.925 84.8984 185.1C84.9966 184.874 85.1881 184.422 85.2864 184.196C84.3778 182.408 82.3888 181.318 81.8928 179.3C81.6178 177.605 82.6294 175.729 84.3139 175.219ZM71.9134 171.28C72.3505 170.479 72.7827 169.689 73.2148 168.893C75.857 170.42 78.5581 171.845 81.2249 173.328C80.7927 174.109 80.3703 174.894 79.948 175.68C79.0394 175.189 78.1358 174.693 77.2321 174.202C75.6066 177.149 73.981 180.09 72.3849 183.057C71.5107 182.556 70.6365 182.065 69.7623 181.574C71.4419 178.661 73.0086 175.685 74.6636 172.758C73.7403 172.272 72.822 171.781 71.9134 171.28ZM155.088 164.115C155.874 163.501 156.655 162.897 157.445 162.293C160.009 165.676 162.587 169.055 165.166 172.429C164.39 173.048 163.609 173.672 162.833 174.295C161.713 172.748 160.564 171.221 159.366 169.733C158.128 170.686 156.89 171.638 155.648 172.576C156.802 174.074 157.936 175.587 159.076 177.1C158.285 177.699 157.49 178.293 156.694 178.892C154.258 175.415 151.532 172.154 149.037 168.721C149.804 168.112 150.58 167.518 151.356 166.919C152.23 168.063 153.128 169.188 153.963 170.362C155.221 169.414 156.473 168.461 157.735 167.523C156.846 166.393 155.967 165.254 155.088 164.115ZM56.91 168.854C58.4373 165.907 60.9567 163.633 62.8868 160.957C63.648 161.585 64.4141 162.209 65.1803 162.833C63.4417 165.097 61.4871 167.204 59.8763 169.561C58.7271 171.506 61.6885 174.01 63.373 172.444C65.4749 170.47 66.9237 167.906 68.9078 165.819C69.6739 166.423 70.4401 167.037 71.1915 167.66C69.3645 169.866 67.6506 172.164 65.7843 174.335C64.4632 175.906 62.0715 176.486 60.2593 175.42C57.9462 174.276 55.6085 171.55 56.91 168.854ZM46.1055 161.404C49.3223 158.614 52.5096 155.795 55.746 153.025C57.4256 154.906 59.0365 156.841 60.7161 158.717C60.0678 159.307 59.4097 159.896 58.7614 160.495C57.7301 159.331 56.7037 158.162 55.6773 156.998C55.2107 157.411 54.7392 157.823 54.2727 158.241C55.2746 159.39 56.2764 160.544 57.293 161.684C56.6006 162.297 55.9179 162.921 55.2402 163.545C54.2334 162.366 53.2119 161.197 52.2444 159.994C51.547 160.584 50.8595 161.178 50.167 161.777C51.1836 162.946 52.1953 164.124 53.1972 165.308C52.5096 165.912 51.8171 166.516 51.1345 167.13C49.4647 165.215 47.8195 163.28 46.1055 161.404ZM167.592 155.815C165.156 156.596 164.38 160.087 166.212 161.87C167.891 163.962 171.658 163.417 172.557 160.844C173.789 157.961 170.538 154.558 167.592 155.815ZM167.543 152.829C170.764 151.955 174.369 153.934 175.361 157.121C176.78 160.932 173.966 165.549 169.929 166.035C166.457 166.713 162.808 164.051 162.366 160.554C161.723 157.156 164.178 153.561 167.543 152.829ZM41.0323 148.841C41.8672 150.039 42.5548 151.768 44.2295 151.915C45.9876 151.994 47.8048 150.874 48.566 149.288C48.9785 147.746 47.9128 146.385 47.2793 145.074C45.2019 146.336 43.1294 147.613 41.0323 148.841ZM37.1378 147.711C40.7966 145.546 44.4259 143.331 48.0896 141.17C49.2781 143.257 50.7858 145.226 51.4586 147.564C52.5292 152.618 45.6488 156.998 41.5038 153.919C39.4804 152.318 38.6259 149.755 37.1378 147.711ZM170.072 147.363C171.334 145.163 172.606 142.972 173.814 140.743C174.59 141.19 175.361 141.636 176.142 142.078C175.386 143.419 174.634 144.765 173.829 146.076C174.384 146.395 174.939 146.719 175.499 147.048C176.24 145.683 177.011 144.328 177.777 142.972C178.563 143.439 179.354 143.891 180.149 144.342C179.383 145.688 178.597 147.019 177.812 148.35C179.432 149.254 181.038 150.182 182.644 151.12C182.138 151.955 181.637 152.794 181.166 153.654C177.409 151.665 173.794 149.416 170.072 147.363ZM53.8209 112.823C54.587 112.72 55.358 112.715 56.1193 112.833C56.0751 113.717 56.021 114.797 54.9406 114.989C53.8258 114.787 53.8602 113.712 53.8209 112.823ZM182.035 106.866C182.968 106.694 183.926 106.768 184.874 106.743C184.884 109.449 184.879 112.16 184.869 114.871C184.176 114.871 183.484 114.871 182.796 114.876C182.777 112.813 182.782 110.746 182.787 108.683C182.168 108.698 181.549 108.707 180.935 108.712C181.294 108.094 181.628 107.455 182.035 106.866ZM176.294 106.768C177.242 106.772 178.19 106.772 179.143 106.772C179.118 109.474 179.162 112.175 179.113 114.876C178.421 114.876 177.728 114.886 177.041 114.895C177.041 112.813 177.055 110.736 177.021 108.658C176.579 108.673 175.7 108.707 175.263 108.722C175.607 108.069 175.95 107.416 176.294 106.768ZM170.897 113.732C172.4 112.194 172.262 109.523 170.907 107.927C169.566 109.533 169.536 112.13 170.897 113.732ZM169.635 106.881C171.324 105.972 173.47 107.17 173.809 108.992C174.202 110.893 174.266 113.373 172.483 114.616C171.029 115.681 168.834 114.895 168.279 113.211C167.503 111.143 167.587 108.177 169.635 106.881ZM161.556 107.013C163.172 106.114 165.843 106.605 166.251 108.653C166.56 110.544 164.827 111.831 163.746 113.113C164.552 113.088 165.367 113.059 166.177 113.024C166.197 113.638 166.217 114.257 166.236 114.876C164.134 114.841 162.032 114.851 159.93 114.876C161.32 112.867 163.506 111.34 164.306 108.987C163.623 107.524 162.391 108.624 162.027 109.645C161.541 109.636 160.579 109.621 160.097 109.616C160.426 108.683 160.579 107.509 161.556 107.008M48.5709 106.763C50.4813 106.772 52.3917 106.777 54.3022 106.768C54.3071 107.416 54.312 108.064 54.3169 108.717C53.6981 108.712 53.0842 108.703 52.4703 108.693C52.4752 110.672 52.4605 112.646 52.485 114.625C51.7533 114.62 51.0215 114.62 50.2898 114.62C50.2996 112.627 50.2898 110.638 50.2947 108.649C49.7201 108.673 49.1455 108.698 48.5709 108.727V106.763ZM43.6058 106.915C44.8237 106.139 46.2872 106.689 47.4757 107.234C47.3087 107.627 46.9699 108.413 46.8029 108.806C45.8256 108.246 44.8237 107.897 44.0478 109.002C45.0693 109.518 46.2037 109.793 47.1761 110.407C48.4923 111.713 47.682 114.257 45.9091 114.699C44.5143 115.229 43.1048 114.566 41.9262 113.844C42.2405 113.265 42.5597 112.695 42.874 112.116C43.6549 112.936 46.0122 113.854 45.7617 111.929C44.8876 111.399 43.8366 111.232 42.982 110.662C41.8672 109.621 42.2748 107.583 43.6058 106.915ZM36.136 106.763C37.7812 106.782 39.4313 106.782 41.0765 106.763C41.0667 107.357 41.0569 107.956 41.0471 108.555C40.114 108.55 39.1808 108.55 38.2477 108.555C38.2723 108.889 38.3165 109.552 38.341 109.881C39.1808 109.871 40.0206 109.857 40.8654 109.847C40.8654 110.269 40.8752 111.124 40.8752 111.551C40.0206 111.531 39.1661 111.512 38.3067 111.497C38.3116 111.841 38.3214 112.528 38.3214 112.867C39.2447 112.867 40.168 112.852 41.0864 112.857C41.0814 113.294 41.0716 114.174 41.0667 114.611C39.4166 114.611 37.7714 114.601 36.1212 114.63C36.1458 112.008 36.1163 109.385 36.136 106.763ZM204.047 104.376C208.157 103.467 212.484 106.768 212.69 110.971C213.103 115.092 209.425 119.07 205.255 118.805C201.572 118.824 198.217 115.637 198.158 111.934C197.849 108.403 200.555 104.95 204.047 104.376ZM12.5135 104.464C17.0612 103.143 21.9772 107.352 21.4763 112.032C21.3437 116.305 16.8451 119.679 12.705 118.652C9.00698 117.994 6.38936 114.134 6.97378 110.461C7.43051 107.612 9.66507 105.078 12.5135 104.464ZM109.92 144.986C109.896 146.115 109.896 147.245 109.901 148.379C110.387 148.379 111.359 148.365 111.846 148.36C111.841 147.245 111.836 146.13 111.821 145.02C111.345 145.01 110.397 144.996 109.92 144.986ZM86.74 128.936C90.8997 135.075 96.7538 140.865 104.366 142.108C107.21 142.746 110.073 141.553 112.916 142.162C116.025 142.614 119.207 141.897 122.071 140.684C127.497 138.287 131.667 133.784 134.918 128.926C130.336 128.273 125.616 128.052 121.059 128.99C117.209 129.786 113.314 131.421 110.819 134.589C109.587 133.047 108.089 131.696 106.267 130.886C100.221 128.008 93.2423 127.939 86.74 128.936ZM120.774 119.094C121.722 121.172 122.444 123.347 123.014 125.562C126.53 125.096 130.09 125.268 133.602 125.705C135.655 121.668 136.283 117.12 136.607 112.656C130.891 113.486 125.557 115.927 120.774 119.094ZM85.1145 112.651C85.3404 117.096 86.0378 121.629 88.0955 125.626C91.6168 125.356 95.1626 125.057 98.6888 125.548C99.2486 123.323 100.054 121.167 100.869 119.026C96.1006 115.902 90.7868 113.506 85.1145 112.651ZM110.829 110.343C106.365 114.571 103.261 120.091 101.689 126.019C104.98 126.775 108.157 128.082 110.844 130.154C113.511 128.067 116.717 126.795 119.988 126.014C118.485 120.067 115.313 114.542 110.829 110.343ZM115.372 110.593C116.86 112.401 118.22 114.311 119.419 116.329C123.456 113.599 127.949 111.522 132.683 110.333C133.631 106.542 133.985 102.627 133.769 98.7281C126.662 100.619 119.242 104.003 115.372 110.593ZM87.8991 98.7379C87.7321 102.623 88.071 106.532 89.009 110.308C93.7384 111.536 98.2959 113.55 102.284 116.388C103.408 114.301 104.847 112.41 106.35 110.583C102.426 104.012 95.0398 100.599 87.8991 98.7379ZM103.153 102.348C105.206 104.091 107.121 106.036 108.56 108.324C109.351 107.73 110.033 106.925 110.957 106.537C111.733 107.077 112.415 107.725 113.127 108.339C114.561 106.031 116.462 104.076 118.549 102.348C116.442 98.5807 114.301 94.6469 110.804 91.9753C107.435 94.7501 105.201 98.5611 103.153 102.348ZM116.266 93.0999C118.039 95.5113 119.753 97.9767 121.054 100.678C122.969 99.4893 125.057 98.6397 127.05 97.6132C127.438 93.8366 127.34 89.947 126.324 86.2686C122.463 87.683 119.281 90.3841 116.266 93.0999ZM95.3885 86.2784C94.2933 89.9814 94.3965 93.871 94.6273 97.6869C96.7047 98.5365 98.7035 99.5531 100.648 100.673C102.023 98.0209 103.556 95.4425 105.446 93.1196C102.475 90.3497 99.2192 87.7419 95.3885 86.2784ZM102.706 86.8383C104.366 88.1053 105.967 89.4461 107.494 90.8752C108.536 89.9274 109.66 89.063 110.947 88.4737C112.106 89.1661 113.177 89.9961 114.203 90.8752C115.745 89.4657 117.385 88.1692 118.962 86.799C117.43 81.9321 114.395 77.7036 110.859 74.089C107.293 77.6987 104.248 81.9566 102.706 86.8383ZM100.108 85.1439C102.107 79.1769 106.105 74.0399 110.863 70.0079C115.568 74.089 119.586 79.1868 121.594 85.139C123.539 84.0979 125.572 83.1598 127.767 82.8259C130.582 86.8088 130.361 91.9507 130.179 96.5966C132.183 96.0024 134.211 95.4966 136.259 95.0742C137.31 99.892 137.025 104.916 135.915 109.699C137.118 109.557 138.326 109.434 139.539 109.316C139.81 115.038 139.122 120.877 136.774 126.142C137.737 126.324 138.7 126.515 139.667 126.707C136.175 133.371 131.058 139.471 124.295 142.977C121.383 144.49 118.127 145.271 114.856 145.389C114.861 147.387 114.866 149.386 114.861 151.385C112.189 151.385 109.523 151.365 106.851 151.395C106.871 149.396 106.871 147.397 106.866 145.398C100.27 145.261 94.1656 141.843 89.6376 137.212C86.6074 134.118 83.9162 130.626 82.045 126.707C83.0027 126.51 83.9554 126.319 84.918 126.152C82.6835 120.858 81.7209 115.023 82.1825 109.297C83.371 109.429 84.5595 109.557 85.7529 109.695C84.7118 104.896 84.3778 99.8822 85.414 95.0546C87.4718 95.4671 89.5001 96.022 91.5038 96.6556C91.3663 92.0097 91.0864 86.8284 93.9348 82.8554C96.1301 83.1844 98.1535 84.1372 100.108 85.1439ZM45.0889 75.0172C47.3726 76.2597 49.5629 77.684 51.9546 78.7104C52.598 77.5268 53.703 76.1615 52.9909 74.7618C51.9546 73.1608 50.0442 71.992 48.1092 72.0804C46.5573 72.2719 45.86 73.868 45.0889 75.0172ZM37.899 70.9754C39.7898 72.2621 41.9016 73.1756 43.8611 74.3493C44.2 73.4899 44.6371 72.6452 44.7599 71.717C44.6616 69.9244 42.8642 68.8489 41.327 68.3627C39.5737 67.7733 38.287 69.4873 37.899 70.9754ZM37.6142 68.0778C38.5178 66.5161 39.8144 64.8856 41.7444 64.6842C43.6303 64.3454 45.5162 65.6419 46.1694 67.3804C46.6998 68.8832 46.1841 70.445 45.8305 71.9232C46.8618 70.5285 47.9963 68.9324 49.8085 68.564C52.765 67.8126 55.8639 70.6562 55.6134 73.6323C55.525 75.4936 54.5919 77.1536 53.7276 78.7497C52.5636 80.8418 51.3899 82.929 50.2407 85.0261C49.9706 84.8689 49.4402 84.5546 49.175 84.3974C49.391 83.7688 49.6022 83.1304 49.7987 82.4968C47.1614 80.7534 44.3179 79.3439 41.5627 77.7969C39.6327 76.8245 37.8303 75.582 35.7971 74.8208C35.306 75.2579 34.8542 75.7293 34.4416 76.245C34.1028 76.0338 33.7688 75.8276 33.4299 75.6213C34.7854 73.0872 36.1802 70.5677 37.6142 68.0778ZM178.858 61.3643C179.241 61.1532 179.629 60.942 180.017 60.7357C180.935 62.3957 181.873 64.0507 182.816 65.6959C179.973 70.2289 177.124 74.7569 174.29 79.2899C177.831 77.0553 181.745 75.4052 185.08 72.8465C184.918 72.4242 184.599 71.5696 184.437 71.1424C184.722 70.9999 185.296 70.7151 185.586 70.5727C186.509 72.1884 187.413 73.814 188.346 75.4248C188.027 75.6557 187.708 75.8914 187.393 76.1271C186.976 75.69 186.544 75.2726 186.092 74.8748C185.075 75.14 184.181 75.7097 183.278 76.2204C179.01 78.6858 174.678 81.0382 170.425 83.5282C169.959 82.7129 169.497 81.8928 169.04 81.0726C172.174 76.0142 175.4 71.0196 178.45 65.9169C174.526 68.3332 170.303 70.2829 166.546 72.9447C166.688 73.3573 166.978 74.1823 167.12 74.59C166.855 74.7618 166.32 75.1105 166.054 75.2824C165.141 73.6323 164.228 71.9871 163.299 70.3517C163.53 70.1896 163.992 69.8655 164.218 69.7034C164.645 70.1503 165.097 70.5677 165.578 70.9557C168.014 70.0324 170.141 68.4609 172.459 67.2871C174.806 65.8334 177.414 64.7579 179.55 62.9801C179.319 62.4399 179.089 61.8996 178.858 61.3643ZM94.0036 61.1237C77.2272 66.6536 63.7511 81.2052 59.7928 98.458C63.5252 99.3223 66.8009 101.94 68.4216 105.417C70.3762 109.39 69.9097 114.365 67.4001 117.989C65.6566 120.583 62.9113 122.336 59.9352 123.185C62.7394 134.422 69.5315 144.583 78.7104 151.631C87.9826 158.811 99.7201 162.926 111.482 162.543C121.874 162.376 132.138 158.884 140.605 152.878C150.619 145.791 157.981 135.07 161.006 123.176C158.256 122.449 155.766 120.838 153.998 118.613C150.909 114.753 150.378 108.992 152.878 104.7C154.592 101.557 157.701 99.3321 161.138 98.4334C159.051 89.8144 154.769 81.7258 148.708 75.2431C146.238 72.4291 143.179 70.2436 140.276 67.9059C127.109 58.457 109.326 55.8148 94.0036 61.1237ZM72.1884 72.1737C81.495 62.8033 94.3866 57.0082 107.588 56.3894C119.021 55.6773 130.567 58.899 140.114 65.195C152.274 73.0724 161.025 85.9641 163.751 100.206C158.874 100.422 154.283 104.165 153.6 109.086C152.804 113.29 154.985 117.7 158.604 119.875C160.132 120.813 161.924 121.167 163.673 121.432C162.243 127.193 160.338 132.904 157.2 137.978C151.562 147.5 143.016 155.329 132.904 159.866C122.454 164.728 110.421 165.843 99.1602 163.565C83.3219 160.264 69.3203 149.406 62.0715 134.957C59.8812 130.685 58.3833 126.083 57.2734 121.422C61.1679 121.113 65.0084 118.829 66.5456 115.146C68.343 111.325 67.4492 106.463 64.4583 103.497C62.6265 101.39 59.8812 100.516 57.1899 100.216C59.3262 89.6867 64.5222 79.727 72.1884 72.1737ZM50.3634 50.938C50.609 51.105 51.0903 51.439 51.3358 51.6109C50.9528 52.3721 49.9706 53.3641 50.9037 54.1352C53.1579 56.3304 55.6134 58.3194 57.9462 60.4312C59.5128 61.6492 60.7799 63.3288 62.6952 64.0114C63.1078 63.5743 63.5203 63.1372 63.9328 62.6952C64.1637 62.931 64.6204 63.4074 64.8512 63.6431C62.9899 65.7205 61.1384 67.8077 59.3311 69.9391C59.0119 69.6985 58.6927 69.4578 58.3784 69.2172C58.8744 68.4265 59.7486 67.292 58.6681 66.5554C55.5938 63.7659 52.4458 61.0549 49.3468 58.2949C48.6838 57.7645 48.0503 57.0524 47.1712 56.9247C46.6703 57.2586 46.1988 57.6319 45.7519 58.0346C45.4425 57.7743 45.1331 57.5189 44.8286 57.2636C46.6556 55.137 48.507 53.0351 50.3634 50.938ZM165.838 45.4818C168.77 48.4776 171.786 51.3948 174.698 54.42C173.819 55.6674 172.945 56.9149 172.085 58.1721C171.692 57.7694 171.3 57.3716 170.912 56.9689C171.363 56.1684 171.879 55.3826 172.115 54.479C171.535 53.0449 170.145 52.1364 169.129 51.0264C167.39 52.5734 165.745 54.2187 164.129 55.8884C164.891 56.6202 165.667 57.3421 166.467 58.0346C167.135 57.5288 167.788 57.0082 168.431 56.468C168.8 56.851 169.168 57.2292 169.541 57.6122C167.911 59.2034 166.28 60.7946 164.694 62.435C164.316 62.0764 163.943 61.7228 163.569 61.3692C164.115 60.7259 164.674 60.0874 165.102 59.3557C164.586 58.3931 163.741 57.6761 163.005 56.8903C161.31 58.7909 159.331 60.4116 157.711 62.376C158.86 63.5252 159.896 64.8316 161.266 65.7352C162.386 65.8973 163.285 64.9298 164.242 64.4976C164.616 64.9102 164.989 65.3227 165.367 65.7352C164.031 66.5505 162.838 67.8323 161.35 68.2448C158.167 65.303 155.324 62.0224 152.151 59.0659C152.426 58.7614 152.701 58.452 152.981 58.1476C153.512 58.5208 154.057 58.8842 154.607 59.2329C157.391 57.1702 159.577 54.4348 162.091 52.0725C163.452 50.6827 164.984 49.4303 166.04 47.7753C165.671 47.3186 165.308 46.8667 164.945 46.4149C165.166 46.1792 165.612 45.7126 165.838 45.4818ZM54.8866 46.4542C58.1181 43.8562 61.5018 41.44 64.807 38.9206C65.9366 39.9814 67.0809 41.0274 68.2055 42.0882C67.7635 42.4124 67.3215 42.7316 66.8795 43.0508C66.079 42.4566 65.3178 41.7543 64.3405 41.4792C62.9703 42.0489 61.8849 43.1048 60.7112 43.9839C61.9438 45.968 63.481 47.7458 64.8365 49.6464C65.6468 48.9736 66.4621 48.3057 67.2429 47.6034C66.8697 46.852 66.4768 46.1153 66.0741 45.3885C66.4768 45.0742 66.8795 44.7648 67.2871 44.4603C68.6082 46.3216 70.057 48.0847 71.3928 49.9411C70.9901 50.2603 70.5923 50.5746 70.1994 50.8938C69.5954 50.2259 68.9716 49.5777 68.3185 48.9638C67.4443 49.5728 66.5848 50.2063 65.7303 50.8398C67.2675 52.8386 68.731 54.8866 70.3173 56.8461C71.6433 55.9523 73.0331 55.0879 74.1136 53.8896C74.5556 52.7797 73.7649 51.6944 73.4555 50.6532C73.8877 50.3094 74.3198 49.9656 74.7471 49.6219C75.4396 51.0706 76.1517 52.5096 76.9031 53.9289C73.372 56.6104 69.8409 59.2918 66.3 61.9537C66.0594 61.5657 65.8236 61.1826 65.5879 60.7946C65.912 60.4902 66.5701 59.8763 66.8942 59.5718C65.4995 57.0475 63.5645 54.8817 61.8898 52.544C60.2888 50.5648 58.9923 48.3106 57.0769 46.6015C56.522 46.9404 55.967 47.2793 55.417 47.623C55.2844 47.3284 55.0192 46.744 54.8866 46.4542ZM140.87 44.2246C142.245 40.6394 144.883 37.0101 148.866 36.2145C152.451 35.5024 155.987 37.5454 158.148 40.3055C157.475 41.8181 156.856 43.3504 156.262 44.8925C155.736 44.696 155.221 44.4996 154.7 44.3031C155.147 42.928 155.805 41.4596 155.442 39.9912C154.685 38.1495 152.225 37.7664 150.614 38.6603C147.967 40.0305 146.312 42.6923 145.055 45.2952C144.156 47.3186 143.267 49.6808 144.092 51.8712C144.613 53.1579 146.101 53.4476 147.319 53.6539C148.149 52.3279 148.964 50.9822 149.622 49.558C149.209 49.1897 148.802 48.8263 148.394 48.4579C148.625 48.1142 148.851 47.7655 149.087 47.4217C150.977 48.5758 152.898 49.6906 154.828 50.7858C154.617 51.1787 154.405 51.5667 154.199 51.9596C153.796 51.7484 153.379 51.5667 152.952 51.4242C152.077 52.7601 151.311 54.1597 150.457 55.5054C147.559 55.8541 144.495 55.1272 142.407 52.9958C139.903 50.8693 139.697 47.1074 140.87 44.2246ZM78.1947 33.7148C79.0542 36.1114 80.0413 38.4589 80.9646 40.831C82.2022 40.1974 83.8916 39.7505 84.2992 38.2281C84.6921 36.4355 83.8916 34.4662 82.5165 33.3072C81.1856 32.3249 79.506 33.15 78.1947 33.7148ZM71.7857 34.5988C75.2186 33.3464 78.4894 31.5784 82.0696 30.7878C84.3287 30.1935 86.9758 31.274 87.8008 33.5429C88.9157 35.7922 87.8696 38.4147 86.0181 39.9077C88.0169 41.435 89.8881 43.1245 91.9164 44.6174C92.5499 45.1773 93.4044 45.1577 94.2049 45.1086C94.3375 45.4671 94.48 45.8207 94.6175 46.1743C93.041 46.7931 91.4793 47.4413 89.9126 48.0749C87.5209 45.9042 85.0359 43.8415 82.6245 41.6904C82.2611 41.8672 81.8977 42.044 81.5392 42.2208C82.5951 44.313 83.0027 46.7734 84.5055 48.6102C84.9966 48.5414 85.4877 48.453 85.9788 48.3499C86.1556 48.7182 86.3324 49.0816 86.5092 49.45C84.0291 50.4666 81.5343 51.4439 79.0591 52.4752C78.8773 52.0922 78.6956 51.7091 78.5139 51.3309C79.0689 51.0068 79.6238 50.6827 80.1739 50.3585C79.3341 47.0583 77.7429 44.0134 76.5544 40.8359C75.695 38.9648 75.3021 36.8235 73.8926 35.247C73.48 35.3944 72.6648 35.6792 72.2523 35.8216C72.1393 35.5172 71.9036 34.9082 71.7857 34.5988ZM127.095 26.7115C131.132 27.8558 135.173 28.9706 139.201 30.1395C139.048 31.6619 138.916 33.1893 138.793 34.7166C138.262 34.584 137.732 34.4514 137.207 34.3188C137.177 33.3563 137.197 32.379 137.01 31.4262C135.723 30.6306 134.211 30.1886 132.708 30.0314C131.731 32.1088 131.456 34.4465 130.709 36.6123C131.706 36.8923 132.708 37.1575 133.715 37.4079C134.127 36.6172 134.506 35.8069 134.849 34.9868C135.213 35.1144 135.94 35.3698 136.303 35.4975C135.679 37.6682 135.07 39.8438 134.442 42.0146C134.068 41.9311 133.322 41.769 132.949 41.6855C133.086 40.9096 133.268 40.1434 133.312 39.3576C132.644 38.4442 131.308 38.4884 130.326 38.0758C129.678 40.443 128.872 42.7709 128.386 45.1724C129.388 46.1202 131.019 46.1399 132.305 46.5721C133.867 46.9208 134.412 45.0545 135.124 44.0576C135.65 44.2246 136.17 44.3866 136.696 44.5536C135.998 45.9876 135.286 47.4168 134.599 48.8606C130.321 47.7458 126.103 46.4444 121.845 45.2804C121.958 44.8925 122.071 44.5094 122.188 44.1214C122.994 44.1705 124.207 44.534 124.482 43.4437C125.474 40.4725 126.206 37.4128 127.095 34.4072C127.6 32.5066 128.273 30.6208 128.357 28.6367C127.812 28.4059 127.262 28.18 126.716 27.959C126.81 27.6446 127.001 27.0258 127.095 26.7115ZM110.107 34.589C111.585 34.5595 113.437 34.7068 114.35 33.263C115.244 31.5293 115.303 29.0787 113.835 27.6348C112.803 26.9374 111.512 27.0308 110.333 26.9276C110.107 29.4716 110.166 32.0352 110.107 34.589ZM103.826 25.3561C106.871 25.3708 109.916 25.3855 112.96 25.5132C114.773 25.5722 116.713 26.0633 117.989 27.4286C119.699 29.2899 119.576 32.4968 117.749 34.2403C117.002 34.9818 116 35.3502 115.058 35.7529C116.511 38.2084 117.587 40.8899 119.301 43.1932C120.141 43.4191 120.74 43.8955 120.725 44.8434C118.981 44.8041 117.243 44.7942 115.504 44.809C114.115 41.9851 112.789 39.1219 111.315 36.3422C111.011 36.2587 110.397 36.0918 110.092 36.0132C110.127 38.3509 109.665 40.7475 110.181 43.0508C110.746 43.2718 111.32 43.4682 111.905 43.6352C111.831 44.0232 111.757 44.4063 111.688 44.7942C109.041 44.6027 106.389 44.6616 103.742 44.5978C103.728 44.308 103.698 43.7384 103.683 43.4535C104.484 43.208 105.854 43.3504 105.795 42.1619C105.972 37.4178 106.036 32.6638 106.065 27.9197C106.134 26.4218 103.698 26.9718 103.826 25.3561ZM80.1886 19.2908C67.5376 23.3278 55.7657 30.0855 45.8845 38.95C42.9968 41.7936 40.2122 44.7402 37.3834 47.6427C25.749 60.8339 18.1613 77.404 15.195 94.7059C21.2406 95.7568 26.6772 100.03 28.7104 105.874C30.9105 111.846 29.6336 119.07 25.0958 123.627C22.6599 126.432 19.2074 128.195 15.5977 128.931C19.1239 147.618 28.3322 165.2 41.769 178.666C52.1462 189.186 65.0378 197.157 78.9903 201.974C90.1926 205.761 102.087 207.494 113.903 207.023C138.759 206.247 163.034 195.163 180.081 177.09C183.597 173.053 187.241 169.085 190.114 164.542C197.324 153.86 202.269 141.69 204.72 129.039C198.483 128.111 192.889 123.632 190.831 117.641C188.626 111.522 190.237 104.189 194.932 99.6514C197.618 96.906 201.262 95.1822 205.054 94.6469C202.981 82.5902 198.718 70.9066 192.368 60.446C187.909 53.374 182.728 46.7194 176.628 40.9881C165.072 29.8743 150.57 21.9232 135.105 17.7831C117.14 13.1716 97.8539 13.5399 80.1886 19.2908ZM44.1951 37.8401C62.4742 21.1718 87.2754 11.9045 112.008 12.4546C119.129 12.7836 126.274 13.3533 133.194 15.1655C157.106 20.8133 178.588 35.8953 192.128 56.3845C200.206 68.4412 205.422 82.3446 207.602 96.6801C203.831 96.6998 200.005 97.9079 197.206 100.501C192.781 104.111 190.969 110.451 192.55 115.897C194.215 122.409 200.589 127.09 207.269 127.075C205.113 139.471 200.82 151.557 194.126 162.243C182.428 181.608 163.722 196.523 142.353 203.9C131.181 207.676 119.345 209.572 107.544 209.213C91.2042 208.776 74.9534 204.263 60.8192 196.032C47.5248 188.4 36.1458 177.556 27.7625 164.733C20.1945 153.438 15.4553 140.438 13.0194 127.104C18.1318 126.756 23.1019 123.981 25.636 119.458C29.3979 113.201 27.679 104.351 21.8594 99.9509C19.2712 97.8981 16.0004 96.8913 12.7345 96.6507C16.0004 74.1922 27.2763 52.9811 44.1951 37.8401ZM98.5169 2.83371C83.1402 4.51822 68.122 9.54229 54.8915 17.572C48.4039 21.3535 42.5695 26.1173 36.9414 31.053C19.7083 46.9158 7.85778 68.51 3.80611 91.5873C0.294667 111.61 2.44573 132.625 10.1955 151.439C15.7941 165.043 24.1528 177.517 34.6675 187.811C51.8417 204.729 74.7815 215.73 98.7919 218.206C109.051 219.139 119.473 219.104 129.614 217.12C159.744 211.964 187.049 193.056 202.912 166.983C216.069 145.781 221.329 119.89 217.729 95.2215C214.1 68.4511 199.769 43.3749 178.75 26.4512C160.466 11.4822 137.103 2.67164 113.442 2.2984C108.467 2.05284 103.462 2.25911 98.5169 2.83371ZM108.467 0H114.026C118.122 0.279933 122.213 0.7072 126.299 1.13447C141.366 3.37393 155.997 8.65338 168.918 16.7371C174.821 20.5039 180.385 24.8109 185.537 29.5452C207.48 49.5433 220.543 78.7988 221 108.467V114.051C220.273 130.439 216.339 146.832 208.452 161.286C206.571 165.156 204.445 168.913 201.886 172.385C191.415 188.086 176.692 200.884 159.837 209.346C145.501 216.649 129.496 220.489 113.442 221H106.939C99.0473 220.543 91.1453 219.703 83.4889 217.656C56.8658 211.011 33.0763 193.954 18.0827 170.995C6.84609 153.998 0.604067 133.828 0 113.476V107.318C0.166978 104.803 0.412533 102.294 0.564778 99.7741C2.76496 75.3168 13.7069 51.827 30.7288 34.1715C44.6273 19.7083 62.43 8.8842 81.8731 3.81102C90.5216 1.37511 99.4991 0.2652 108.467 0Z" fill="white"/>
</svg>
